<?xml version="1.0" encoding="utf-8"?>
<svg version="1.1" xmlns="http://www.w3.org/2000/svg" xmlns:xlink="http://www.w3.org/1999/xlink" x="0px"
	 y="0px" viewBox="0 0 468.5 69" enable-background="new 0 0 468.5 69" xml:space="preserve">
<g>
	<path fill="#ffffff" d="M86.3,54.9V19.3h7.2v35.9c0,3.6-1.1,6.4-3.2,8.5c-2.2,2.1-4.8,3.2-7.8,3.2s-5.8-1.1-8.4-3.4l3.3-5.4
		c1.5,1.4,2.9,2.1,4.4,2.1c1.5,0,2.6-0.5,3.4-1.4C85.9,57.9,86.3,56.6,86.3,54.9z M86.6,12.5c-0.9-0.9-1.3-2-1.3-3.2
		c0-1.2,0.4-2.3,1.3-3.2c0.9-0.9,2-1.3,3.2-1.3c1.2,0,2.3,0.4,3.2,1.3c0.9,0.9,1.3,2,1.3,3.2c0,1.2-0.4,2.3-1.3,3.2
		c-0.9,0.9-2,1.3-3.2,1.3C88.6,13.8,87.5,13.4,86.6,12.5z"/>
	<path fill="#ffffff" d="M126.8,43.1c0,3.2-1.2,5.8-3.5,7.8c-2.3,1.9-5.4,2.9-9,2.9c-2.5,0-5-0.4-7.7-1.3c-2.7-0.9-5-2.2-7.1-3.8l3.5-5.6
		c4,3,7.8,4.5,11.5,4.5c1.6,0,2.9-0.4,3.8-1.1c0.9-0.7,1.4-1.7,1.4-2.8c0-1.7-2.3-3.2-6.8-4.6c-0.3-0.1-0.6-0.2-0.8-0.3
		c-7.1-1.9-10.6-5.1-10.6-9.6c0-3.2,1.2-5.7,3.7-7.6c2.5-1.9,5.6-2.8,9.6-2.8c3.9,0,7.6,1.2,11.1,3.5l-2.7,5.3
		c-2.8-1.8-5.8-2.8-9-2.8c-1.7,0-3.1,0.3-4.2,0.9c-1.1,0.6-1.6,1.5-1.6,2.8c0,1.1,0.6,1.9,1.7,2.4c0.8,0.4,1.8,0.7,3.2,1.1
		c1.4,0.3,2.6,0.7,3.7,1c1.1,0.3,2.1,0.7,3.1,1.2c1,0.4,2.1,1,3.2,1.8C125.6,37.5,126.8,39.9,126.8,43.1z"/>
	<path fill="#ffffff" d="M140.5,25v17.3c0,1.6,0.4,2.9,1.3,3.9s2,1.4,3.6,1.4c1.5,0,3-0.7,4.4-2.2l2.9,5.1c-2.5,2.3-5.3,3.4-8.4,3.4
		c-3.1,0-5.7-1.1-7.8-3.2c-2.2-2.1-3.2-5-3.2-8.5V8.6h7.2v10.7h9V25H140.5z"/>
	<path fill="#ffffff" d="M159.7,48.9c-3.2-3.2-4.8-7.5-4.8-12.8c0-5.3,1.6-9.5,4.9-12.7c3.3-3.2,7.2-4.7,11.6-4.7s8.2,2.1,11.1,6.4v-5.9h7.2v34
		h-7.2v-5.6c-1.4,2-3.1,3.5-5.2,4.5c-2.1,1-4.2,1.6-6.4,1.6C166.7,53.8,162.9,52.2,159.7,48.9z M162.1,36.4c0,3.3,1,5.9,3.1,8
		s4.5,3.1,7.4,3.1c2.8,0,5.2-1,7.2-3.1c2-2.1,2.9-4.7,2.9-8c0-3.2-1-6-2.9-8.1c-2-2.2-4.4-3.3-7.2-3.3c-2.9,0-5.3,1.1-7.4,3.3
		C163.1,30.5,162.1,33.2,162.1,36.4z"/>
	<path fill="#ffffff" d="M215.4,26c-3.5,0-6.2,1.2-8,3.5c-1.8,2.3-2.7,5.4-2.7,9.3v14.6h-7.2v-34h7.2v6.8c1.2-2.1,2.7-3.9,4.7-5.2
		c2-1.4,4.1-2.1,6.3-2.1l0.1,7.2C215.7,26,215.6,26,215.4,26z"/>
	<path fill="#ffffff" d="M228.5,25v17.3c0,1.6,0.4,2.9,1.3,3.9s2,1.4,3.6,1.4c1.5,0,3-0.7,4.4-2.2l2.9,5.1c-2.5,2.3-5.3,3.4-8.4,3.4
		c-3.1,0-5.7-1.1-7.8-3.2c-2.2-2.1-3.2-5-3.2-8.5V8.6h7.2v10.7h9V25H228.5z"/>
	<path fill="#ffffff" d="M262,18.7c4.7,0,8.5,1.3,11.6,3.9c3.1,2.6,4.6,5.9,4.7,10.1l0.1,0.1l-24.8,10.4c2.2,2.7,5.2,4.1,9.1,4.1s7-1.5,9.4-4.5
		l4.2,4.7c-4.1,4.2-8.8,6.3-14.3,6.3c-4.8,0-9-1.6-12.4-4.8c-3.5-3.2-5.2-7.4-5.2-12.7c0-3.6,0.9-6.8,2.7-9.6s4-4.8,6.7-6.1
		C256.2,19.4,259,18.7,262,18.7z M251.1,36.5c0,0.6,0,1,0.1,1.2l18.9-8.1c-1.5-2.8-4-4.2-7.7-4.2c-2.8,0-5.4,1-7.7,2.9
		C252.3,30.2,251.1,33,251.1,36.5z"/>
	<path fill="#ffffff" d="M288.3,48.9c-3.2-3.2-4.8-7.5-4.8-12.8c0-5.3,1.6-9.5,4.9-12.7c3.3-3.2,7.2-4.7,11.7-4.7s8.2,1.9,11,5.8V5.8h7.2v47.5h-7.2
		v-5.1c-2.6,3.8-6.5,5.6-11.6,5.6C295.2,53.8,291.5,52.2,288.3,48.9z M290.6,36.4c0,3.3,1,5.9,3.1,8s4.5,3.1,7.4,3.1
		c2.8,0,5.2-1,7.2-3.1c2-2.1,2.9-4.7,2.9-8c0-3.2-1-6-2.9-8.1c-2-2.2-4.4-3.3-7.2-3.3c-2.9,0-5.3,1.1-7.4,3.3
		C291.6,30.5,290.6,33.2,290.6,36.4z"/>
	<path fill="#ffffff" d="M326.5,52.4c-0.9-0.9-1.4-2.1-1.4-3.4c0-1.3,0.5-2.4,1.4-3.4c0.9-0.9,2-1.4,3.4-1.4c1.3,0,2.5,0.5,3.4,1.4
		c0.9,0.9,1.4,2,1.4,3.4c0,1.3-0.5,2.5-1.4,3.4c-0.9,0.9-2.1,1.4-3.4,1.4C328.5,53.8,327.4,53.3,326.5,52.4z"/>
	<path fill="#ffffff" d="M355.3,53.8c-4.7,0-8.8-1.6-12.2-4.8c-3.4-3.2-5.1-7.4-5.1-12.6c0-5.2,1.8-9.4,5.3-12.7c3.6-3.3,7.9-4.9,13-4.9
		c5.1,0,9.5,1.8,13,5.3l-4.2,5.2c-2.9-2.6-5.9-3.8-8.9-3.8s-5.6,1-7.8,3c-2.2,2-3.3,4.5-3.3,7.7c0,3.1,1.1,5.8,3.3,8
		c2.2,2.2,4.9,3.3,8,3.3c3.2,0,6.2-1.5,9-4.4l4.2,4.6C365.5,51.7,360.7,53.8,355.3,53.8z"/>
	<path fill="#ffffff" d="M402.9,48.7c-3.4,3.4-7.7,5.1-12.8,5.1s-9.4-1.7-12.8-5.1c-3.4-3.4-5.1-7.5-5.1-12.4s1.7-9.1,5.1-12.4
		c3.4-3.4,7.7-5.1,12.8-5.1s9.4,1.7,12.8,5.1c3.4,3.4,5.1,7.5,5.1,12.4S406.4,45.3,402.9,48.7z M382.4,44.3c2,2.1,4.6,3.1,7.7,3.1
		c3.1,0,5.7-1,7.7-3.1c2-2.1,3-4.7,3-8c0-3.3-1-6-3-8c-2-2.1-4.6-3.1-7.7-3.1c-3.1,0-5.7,1-7.7,3.1c-2,2.1-3,4.7-3,8
		C379.4,39.6,380.4,42.2,382.4,44.3z"/>
	<path fill="#ffffff" d="M420.8,34.9v18.4h-7.2v-34h7.2v6.2c1-2.1,2.6-3.7,4.6-4.9c2.1-1.2,4.3-1.8,6.7-1.8c5.4,0,9,2.2,10.9,6.7
		c3.4-4.4,7.6-6.7,12.6-6.7c3.8,0,6.9,1.2,9.3,3.5c2.4,2.3,3.6,5.7,3.6,10.2v20.9h-7.2V34.6c0-6.3-2.6-9.4-7.8-9.4
		c-2.4,0-4.6,0.8-6.4,2.3c-1.8,1.6-2.8,3.8-2.8,6.8v18.9h-7.2V34.6c0-3.2-0.6-5.6-1.7-7.1c-1.2-1.5-3-2.3-5.4-2.3
		c-2.5,0-4.6,0.8-6.5,2.5C421.7,29.3,420.8,31.7,420.8,34.9z"/>
</g>
<circle fill="none" stroke="#ffffff" stroke-width="5" stroke-miterlimit="10" cx="34.5" cy="34.5" r="32"/>
<line fill="none" stroke="#ffffff" stroke-width="5" stroke-miterlimit="10" x1="11.1" y1="13.3" x2="11.1" y2="56"/>
<line fill="none" stroke="#ffffff" stroke-width="5" stroke-miterlimit="10" x1="11.1" y1="56" x2="58.3" y2="56"/>
<line fill="none" stroke="#ffffff" stroke-width="5" stroke-miterlimit="10" x1="58.3" y1="56" x2="11.1" y2="13.3"/>
<line fill="none" stroke="#ffffff" stroke-width="5" stroke-miterlimit="10" x1="34.5" y1="2.5" x2="34.5" y2="66.5"/>
</svg>
